<svg xmlns="http://www.w3.org/2000/svg" xmlns:xlink="http://www.w3.org/1999/xlink" xmlns:serif="http://www.serif.com/" width="170" height="46" viewBox="0 0 170 46" version="1.1" xml:space="preserve" style="fill-rule:evenodd;clip-rule:evenodd;stroke-linejoin:round;stroke-miterlimit:2;">
    <g transform="matrix(1,0,0,1,-168.7,-1236)">
        <g transform="matrix(1,0,0,-1,182.693,1243.28)">
            <g>
                <path d="M4.1,-24.828L-5.471,-5.445L-9.359,-24.828L-13.993,-24.828L-6.716,7.276L4.1,-16.377L14.817,7.276L22.291,-24.828L17.608,-24.828L13.621,-5.445L4.1,-24.828ZM55.241,-24.828L49.903,-24.828L46.414,-16.9L34.156,-16.9L30.565,-24.828L25.283,-24.828L40.285,7.276L55.241,-24.828ZM44.619,-12.714L40.337,-2.147L36.049,-12.714L44.619,-12.714ZM58.234,-24.828L63.266,-24.828L63.266,7.276L58.234,7.276L58.234,-24.828ZM98.362,-8.828C98.362,-11.002 97.973,-13.025 97.199,-15.002C96.372,-16.928 95.207,-18.654 93.649,-20.185C92.145,-21.72 90.401,-22.854 88.405,-23.645C86.462,-24.431 84.424,-24.828 82.284,-24.828C80.152,-24.828 78.06,-24.431 76.116,-23.645C74.126,-22.854 72.377,-21.67 70.876,-20.185C69.371,-18.654 68.249,-16.928 67.427,-15.002C66.649,-13.074 66.259,-11.002 66.259,-8.828C66.259,-6.604 66.649,-4.578 67.427,-2.606C68.249,-0.678 69.371,1.051 70.876,2.582C72.43,4.114 74.126,5.248 76.116,6.037C78.06,6.879 80.103,7.276 82.284,7.276C84.471,7.276 86.51,6.879 88.452,6.037C90.401,5.248 92.145,4.114 93.649,2.582C95.207,1.051 96.372,-0.678 97.199,-2.652C97.973,-4.578 98.362,-6.654 98.362,-8.828M93.265,-8.828C93.265,-7.248 93.019,-5.813 92.437,-4.383C91.902,-3 91.126,-1.765 90.06,-0.678C89.038,0.408 87.873,1.25 86.51,1.792C85.199,2.385 83.794,2.68 82.284,2.68C80.831,2.68 79.424,2.385 78.06,1.792C76.75,1.25 75.536,0.408 74.514,-0.678C73.45,-1.765 72.67,-3 72.136,-4.383C71.554,-5.765 71.309,-7.248 71.309,-8.828C71.309,-10.358 71.554,-11.843 72.136,-13.223C72.67,-14.608 73.45,-15.839 74.514,-16.928C75.536,-18.016 76.706,-18.853 78.06,-19.396C79.375,-19.94 80.783,-20.234 82.284,-20.234C83.743,-20.234 85.152,-19.94 86.51,-19.396C87.826,-18.853 88.991,-18.016 90.06,-16.928C91.126,-15.839 91.902,-14.608 92.437,-13.174C93.019,-11.79 93.265,-10.358 93.265,-8.828M122.592,-24.828L116.908,-24.828L106.64,-9.821L106.04,-9.821L106.04,-24.828L101.355,-24.828L101.355,7.276L108.338,7.276C110.375,7.276 112.024,7.124 113.123,6.877C114.267,6.579 115.214,6.127 116.009,5.53C117.007,4.783 117.703,3.835 118.254,2.636C118.805,1.443 119.053,0.146 119.053,-1.248C119.053,-3.745 118.456,-5.687 117.257,-7.078C116.009,-8.474 114.267,-9.326 111.922,-9.574L122.592,-24.828ZM107.289,-5.51C109.929,-5.51 111.724,-5.161 112.574,-4.564C113.418,-3.967 113.87,-3.294 113.87,-1.698C113.87,-0.004 113.418,1.194 112.471,1.894C111.526,2.592 109.832,2.936 107.289,2.936L106.04,2.936L106.04,-5.51L107.289,-5.51ZM155.508,-24.828L150.176,-24.828L146.69,-16.9L134.422,-16.9L130.834,-24.828L125.554,-24.828L140.556,7.276L155.508,-24.828ZM144.893,-12.714L140.605,-2.147L136.318,-12.714L144.893,-12.714Z" style="fill:rgb(85,57,34);fill-rule:nonzero;"/>
            </g>
        </g>
        <g transform="matrix(1,0,0,-1,173.077,1277.91)">
            <rect x="14.934" y="-3.952" width="1.162" height="5.023" style="fill:rgb(85,57,34);"/>
        </g>
        <g transform="matrix(1,0,0,-1,193.026,1281.86)">
            <path d="M0,5.023L0,4.074L1.607,4.074L1.607,0L2.77,0L2.77,4.074L4.378,4.074L4.378,5.023L0,5.023Z" style="fill:rgb(85,57,34);fill-rule:nonzero;"/>
        </g>
        <g>
            <g>
                <g transform="matrix(1,0,0,-1,202.007,1278.77)">
                    <path d="M0.27,2.102C0.399,1.976 0.464,1.81 0.464,1.604C0.464,1.508 0.452,1.413 0.428,1.317C0.403,1.221 0.353,1.078 0.278,0.886L-0.139,-0.148L-0.85,-0.148L-0.541,0.986C-0.661,1.039 -0.754,1.118 -0.82,1.223C-0.887,1.329 -0.921,1.455 -0.921,1.604C-0.921,1.81 -0.855,1.976 -0.724,2.102C-0.593,2.229 -0.427,2.293 -0.225,2.293C-0.025,2.293 0.141,2.229 0.27,2.102" style="fill:rgb(85,57,34);fill-rule:nonzero;"/>
                </g>
                <g transform="matrix(1,0,0,-1,206.906,1278.05)">
                    <path d="M0.202,-3.731C-0.169,-3.623 -0.466,-3.484 -0.691,-3.312L-0.297,-2.436C-0.081,-2.593 0.175,-2.722 0.471,-2.816C0.768,-2.913 1.065,-2.961 1.361,-2.961C1.692,-2.961 1.935,-2.91 2.093,-2.813C2.252,-2.715 2.331,-2.586 2.331,-2.422C2.331,-2.303 2.283,-2.203 2.19,-2.124C2.097,-2.045 1.977,-1.982 1.832,-1.934C1.686,-1.886 1.488,-1.833 1.24,-1.776C0.857,-1.686 0.544,-1.594 0.299,-1.503C0.056,-1.413 -0.154,-1.267 -0.328,-1.065C-0.504,-0.866 -0.59,-0.597 -0.59,-0.262C-0.59,0.029 -0.511,0.294 -0.354,0.53C-0.196,0.768 0.042,0.955 0.36,1.094C0.678,1.233 1.068,1.302 1.527,1.302C1.847,1.302 2.16,1.264 2.467,1.187C2.773,1.111 3.041,1 3.271,0.858L2.911,-0.024C2.447,0.238 1.983,0.369 1.519,0.369C1.194,0.369 0.954,0.317 0.799,0.211C0.642,0.106 0.566,-0.032 0.566,-0.204C0.566,-0.376 0.654,-0.505 0.833,-0.588C1.013,-0.673 1.287,-0.755 1.656,-0.836C2.039,-0.927 2.352,-1.017 2.596,-1.109C2.84,-1.2 3.048,-1.343 3.223,-1.54C3.398,-1.736 3.486,-2.001 3.486,-2.336C3.486,-2.623 3.405,-2.884 3.245,-3.121C3.085,-3.359 2.844,-3.546 2.523,-3.685C2.203,-3.823 1.814,-3.893 1.355,-3.893C0.958,-3.893 0.574,-3.839 0.202,-3.731" style="fill:rgb(85,57,34);fill-rule:nonzero;"/>
                </g>
            </g>
        </g>
        <g transform="matrix(1,0,0,-1,220.748,1281.86)">
            <path d="M0.508,5.023L-1.732,0L-0.541,0L-0.095,1.077L2.236,1.077L2.681,0L3.9,0L1.654,5.023L0.508,5.023ZM1.074,3.882L1.87,1.959L0.277,1.959L1.074,3.882Z" style="fill:rgb(85,57,34);fill-rule:nonzero;"/>
        </g>
        <g transform="matrix(1,0,0,-1,228.402,1281.86)">
            <path d="M0,5.023L0,0L3.681,0L3.681,0.947L1.161,0.947L1.161,5.023L0,5.023Z" style="fill:rgb(85,57,34);fill-rule:nonzero;"/>
        </g>
        <g transform="matrix(1,0,0,-1,235.965,1281.86)">
            <path d="M0,5.023L0,0L3.681,0L3.681,0.947L1.162,0.947L1.162,5.023L0,5.023Z" style="fill:rgb(85,57,34);fill-rule:nonzero;"/>
        </g>
        <g transform="matrix(1,0,0,-1,249.859,1281.86)">
            <path d="M0.508,5.023L-1.732,0L-0.541,0L-0.096,1.077L2.236,1.077L2.68,0L3.9,0L1.654,5.023L0.508,5.023ZM1.073,3.882L1.87,1.959L0.277,1.959L1.073,3.882Z" style="fill:rgb(85,57,34);fill-rule:nonzero;"/>
        </g>
        <g>
            <g>
                <g transform="matrix(1,0,0,-1,260.887,1279.64)">
                    <path d="M0.989,-0.062C1.152,-0.275 1.233,-0.536 1.233,-0.846C1.233,-1.286 1.062,-1.625 0.72,-1.861C0.378,-2.099 -0.122,-2.217 -0.776,-2.217L-3.374,-2.217L-3.374,2.805L-0.92,2.805C-0.308,2.805 0.162,2.689 0.491,2.453C0.817,2.218 0.981,1.901 0.981,1.499C0.981,1.255 0.923,1.038 0.805,0.846C0.687,0.655 0.525,0.505 0.314,0.394C0.601,0.303 0.826,0.152 0.989,-0.062M-2.218,1.93L-2.218,0.745L-1.063,0.745C-0.776,0.745 -0.559,0.797 -0.41,0.897C-0.263,0.997 -0.188,1.146 -0.188,1.341C-0.188,1.539 -0.263,1.684 -0.41,1.782C-0.559,1.882 -0.776,1.93 -1.063,1.93L-2.218,1.93ZM-0.17,-1.192C-0.015,-1.091 0.063,-0.936 0.063,-0.725C0.063,-0.308 -0.246,-0.1 -0.863,-0.1L-2.218,-0.1L-2.218,-1.342L-0.863,-1.342C-0.556,-1.342 -0.326,-1.292 -0.17,-1.192" style="fill:rgb(85,57,34);fill-rule:nonzero;"/>
                </g>
                <g transform="matrix(1,0,0,-1,266.95,1278.19)">
                    <path d="M0.303,-3.42C-0.116,-3.195 -0.443,-2.885 -0.679,-2.49C-0.916,-2.095 -1.035,-1.652 -1.035,-1.158C-1.035,-0.667 -0.916,-0.222 -0.679,0.173C-0.443,0.567 -0.116,0.877 0.303,1.102C0.721,1.326 1.192,1.438 1.713,1.438C2.235,1.438 2.703,1.326 3.12,1.102C3.536,0.877 3.863,0.567 4.102,0.173C4.341,-0.222 4.46,-0.667 4.46,-1.158C4.46,-1.652 4.341,-2.095 4.102,-2.49C3.863,-2.885 3.536,-3.195 3.12,-3.42C2.703,-3.645 2.235,-3.757 1.713,-3.757C1.192,-3.757 0.721,-3.645 0.303,-3.42M2.517,-2.561C2.756,-2.425 2.944,-2.235 3.079,-1.992C3.217,-1.746 3.284,-1.47 3.284,-1.158C3.284,-0.848 3.217,-0.57 3.079,-0.325C2.944,-0.082 2.756,0.108 2.517,0.244C2.278,0.381 2.01,0.449 1.713,0.449C1.417,0.449 1.149,0.381 0.91,0.244C0.671,0.108 0.483,-0.082 0.346,-0.325C0.21,-0.57 0.142,-0.848 0.142,-1.158C0.142,-1.47 0.21,-1.746 0.346,-1.992C0.483,-2.235 0.671,-2.425 0.91,-2.561C1.149,-2.698 1.417,-2.765 1.713,-2.765C2.01,-2.765 2.278,-2.698 2.517,-2.561" style="fill:rgb(85,57,34);fill-rule:nonzero;"/>
                </g>
                <g transform="matrix(1,0,0,-1,275.936,1278.46)">
                    <path d="M0.136,-2.895C-0.264,-2.498 -0.463,-1.932 -0.463,-1.195L-0.463,1.619L0.698,1.619L0.698,-1.151C0.698,-2.049 1.072,-2.499 1.818,-2.499C2.181,-2.499 2.459,-2.392 2.651,-2.173C2.842,-1.956 2.938,-1.615 2.938,-1.151L2.938,1.619L4.086,1.619L4.086,-1.195C4.086,-1.932 3.885,-2.498 3.487,-2.895C3.086,-3.292 2.528,-3.491 1.811,-3.491C1.094,-3.491 0.535,-3.292 0.136,-2.895" style="fill:rgb(85,57,34);fill-rule:nonzero;"/>
                </g>
            </g>
        </g>
        <g transform="matrix(1,0,0,-1,283.746,1281.86)">
            <path d="M0,5.023L0,4.074L1.607,4.074L1.607,0L2.77,0L2.77,4.074L4.377,4.074L4.377,5.023L0,5.023Z" style="fill:rgb(85,57,34);fill-rule:nonzero;"/>
        </g>
        <g transform="matrix(1,0,0,-1,299.57,1281.86)">
            <path d="M0.888,5.023L-0.456,2.792L-1.795,5.023L-3.03,5.023L-1.085,1.795L-1.085,0L0.077,0L0.077,1.779L2.028,5.023L0.888,5.023Z" style="fill:rgb(85,57,34);fill-rule:nonzero;"/>
        </g>
        <g>
            <g>
                <g transform="matrix(1,0,0,-1,305.82,1278.19)">
                    <path d="M0.303,-3.42C-0.116,-3.195 -0.443,-2.885 -0.679,-2.49C-0.916,-2.095 -1.035,-1.652 -1.035,-1.158C-1.035,-0.667 -0.916,-0.222 -0.679,0.173C-0.443,0.567 -0.116,0.877 0.303,1.102C0.722,1.326 1.192,1.438 1.713,1.438C2.235,1.438 2.703,1.326 3.12,1.102C3.536,0.877 3.863,0.567 4.102,0.173C4.341,-0.222 4.46,-0.667 4.46,-1.158C4.46,-1.652 4.341,-2.095 4.102,-2.49C3.863,-2.885 3.536,-3.195 3.12,-3.42C2.703,-3.645 2.235,-3.757 1.713,-3.757C1.192,-3.757 0.722,-3.645 0.303,-3.42M2.517,-2.561C2.756,-2.425 2.944,-2.235 3.079,-1.992C3.217,-1.746 3.284,-1.47 3.284,-1.158C3.284,-0.848 3.217,-0.57 3.079,-0.325C2.944,-0.082 2.756,0.108 2.517,0.244C2.278,0.381 2.01,0.449 1.713,0.449C1.417,0.449 1.149,0.381 0.908,0.244C0.671,0.108 0.483,-0.082 0.346,-0.325C0.21,-0.57 0.142,-0.848 0.142,-1.158C0.142,-1.47 0.21,-1.746 0.346,-1.992C0.483,-2.235 0.671,-2.425 0.908,-2.561C1.149,-2.698 1.417,-2.765 1.713,-2.765C2.01,-2.765 2.278,-2.698 2.517,-2.561" style="fill:rgb(85,57,34);fill-rule:nonzero;"/>
                </g>
                <g transform="matrix(1,0,0,-1,314.806,1278.46)">
                    <path d="M0.136,-2.895C-0.264,-2.498 -0.463,-1.932 -0.463,-1.195L-0.463,1.619L0.698,1.619L0.698,-1.151C0.698,-2.049 1.072,-2.499 1.818,-2.499C2.181,-2.499 2.459,-2.392 2.651,-2.173C2.842,-1.956 2.938,-1.615 2.938,-1.151L2.938,1.619L4.086,1.619L4.086,-1.195C4.086,-1.932 3.885,-2.498 3.487,-2.895C3.086,-3.292 2.528,-3.491 1.811,-3.491C1.094,-3.491 0.535,-3.292 0.136,-2.895" style="fill:rgb(85,57,34);fill-rule:nonzero;"/>
                </g>
            </g>
        </g>
    </g>
</svg>