<svg xmlns="http://www.w3.org/2000/svg" xmlns:xlink="http://www.w3.org/1999/xlink" xmlns:serif="http://www.serif.com/" width="471" height="188" viewBox="0 0 471 188" version="1.1" xml:space="preserve" style="fill-rule:evenodd;clip-rule:evenodd;stroke-linejoin:round;stroke-miterlimit:2;">
    <g transform="matrix(4.16667,0,0,4.16667,0,0)">
        <path d="M21.107,20.123L6.636,0.835L0.433,0.835L0.433,29.361L6.7,29.361L6.7,10.104L21.2,29.361L27.338,29.361L27.338,0.835L21.107,0.835L21.107,20.123Z" style="fill:rgb(85,57,34);fill-rule:nonzero;"/>
        <path d="M112.353,0.835L78.235,0.835L71.935,9.799L65.634,0.835L31.953,0.835L31.953,6.522L38.184,6.522L38.184,6.52L62.343,6.52L68.221,14.265L56.736,29.325L64.342,29.325L71.935,18.64L79.527,29.325L87.133,29.325L75.649,14.265L81.52,6.529L97.128,6.529L97.128,29.361L103.296,29.361L103.296,6.529L112.353,6.529L112.353,0.835Z" style="fill:rgb(85,57,34);fill-rule:nonzero;"/>
        <path d="M38.184,17.045L49.615,17.045L49.615,11.538L39.662,11.514L31.953,11.514L31.953,29.361L54.501,29.361L54.501,23.663L38.184,23.663L38.184,17.045Z" style="fill:rgb(85,57,34);fill-rule:nonzero;"/>
        <path d="M3.656,39.32L1.766,36.03L0,36.03L2.89,41.033L2.89,44.825L4.424,44.825L4.424,41.033L7.313,36.03L5.547,36.03L3.656,39.32Z" style="fill:rgb(85,57,34);fill-rule:nonzero;"/>
        <path d="M13.843,38.815L14.934,41.299L12.751,41.299L13.843,38.815ZM9.492,44.825L11.154,44.825L12.101,42.746L15.584,42.746L16.53,44.825L18.192,44.825L13.843,35.327L9.492,44.825Z" style="fill:rgb(85,57,34);fill-rule:nonzero;"/>
        <path d="M26.712,35.853C24.098,35.853 22.051,37.881 22.051,40.471C22.051,42.969 24.103,45 26.624,45C27.408,45 28.27,44.77 28.929,44.383L29.053,44.311L29.053,42.389L28.636,42.76C28.063,43.272 27.336,43.554 26.592,43.554C24.934,43.554 23.585,42.156 23.585,40.438C23.585,38.708 24.943,37.299 26.613,37.299C27.352,37.299 28.108,37.58 28.637,38.051L29.053,38.421L29.053,36.524L28.934,36.452C28.295,36.06 27.527,35.853 26.712,35.853Z" style="fill:rgb(85,57,34);fill-rule:nonzero;"/>
        <path d="M38.946,39.374L35.497,39.374L35.497,36.03L33.963,36.03L33.963,44.825L35.497,44.825L35.497,40.842L38.946,40.842L38.946,44.825L40.481,44.825L40.481,36.03L38.946,36.03L38.946,39.374Z" style="fill:rgb(85,57,34);fill-rule:nonzero;"/>
        <path d="M44.975,37.476L46.943,37.476L46.943,44.825L48.478,44.825L48.478,37.476L50.447,37.476L50.447,36.03L44.975,36.03L44.975,37.476Z" style="fill:rgb(85,57,34);fill-rule:nonzero;"/>
        <path d="M63.52,41.59L65.639,41.59C65.441,42.715 64.227,43.554 63.197,43.554C61.613,43.554 60.225,42.088 60.225,40.416C60.225,38.668 61.569,37.299 63.285,37.299C64.192,37.299 65.137,37.79 65.69,38.55L65.858,38.781L66.957,37.732L66.814,37.554C65.967,36.489 64.631,35.853 63.241,35.853C60.731,35.853 58.69,37.915 58.69,40.449C58.69,42.916 60.725,45 63.132,45C65.553,45 67.31,43.202 67.31,40.724L67.31,40.144L63.52,40.144L63.52,41.59Z" style="fill:rgb(85,57,34);fill-rule:nonzero;"/>
        <path d="M75.663,38.689C75.663,39.578 75.08,39.958 73.713,39.958L73.633,39.958L73.633,37.454L73.658,37.454C75.045,37.454 75.663,37.834 75.663,38.689ZM77.132,38.645C77.132,37.73 76.667,36.889 75.915,36.447C75.179,36.03 74.305,36.03 73.603,36.03L72.099,36.03L72.099,44.825L73.633,44.825L73.633,41.315L73.681,41.315L76.123,44.825L77.999,44.825L75.321,41.135C76.405,40.831 77.132,39.858 77.132,38.645Z" style="fill:rgb(85,57,34);fill-rule:nonzero;"/>
        <path d="M86.352,43.533C84.663,43.533 83.29,42.14 83.29,40.427C83.29,38.657 84.606,37.322 86.352,37.322C88.097,37.322 89.413,38.657 89.413,40.427C89.413,42.14 88.04,43.533 86.352,43.533ZM86.352,35.853C83.817,35.853 81.756,37.905 81.756,40.427C81.756,42.992 83.774,45 86.352,45C88.929,45 90.947,42.992 90.947,40.427C90.947,37.905 88.886,35.853 86.352,35.853Z" style="fill:rgb(85,57,34);fill-rule:nonzero;"/>
        <path d="M100.611,41.175C100.611,42.762 100.038,43.533 98.858,43.533C97.68,43.533 97.106,42.762 97.106,41.175L97.106,36.03L95.572,36.03L95.572,41.527C95.572,43.604 96.893,45 98.858,45C100.825,45 102.145,43.604 102.145,41.527L102.145,36.03L100.611,36.03L100.611,41.175Z" style="fill:rgb(85,57,34);fill-rule:nonzero;"/>
        <path d="M110.907,38.656C110.907,39.545 110.324,39.924 108.957,39.924L108.876,39.924L108.876,37.454L108.902,37.454C110.307,37.454 110.907,37.813 110.907,38.656ZM108.781,36.03L107.342,36.03L107.342,44.825L108.876,44.825L108.876,41.348L109.22,41.348C111.196,41.348 112.375,40.35 112.375,38.678C112.375,36.847 111.267,36.03 108.781,36.03Z" style="fill:rgb(85,57,34);fill-rule:nonzero;"/>
    </g>
</svg>